<svg width="370" height="370" viewBox="0 0 370 370" fill="none" xmlns="http://www.w3.org/2000/svg" style="width: 236px; height: 236px;"><path d="M93 147.428L177.896 96.1222C182.579 93.2926 188.423 93.2926 193.104 96.1222L278 147.428V231.049L93 221.686V147.428Z" fill="#F1AF05"></path><path d="M262.076 110.377H108.925V243.982H262.076V110.377Z" fill="#F0F1FE"></path><path d="M115.777 117.676C116.58 117.34 116.961 116.41 116.629 115.6C116.296 114.789 115.375 114.404 114.572 114.74C113.769 115.075 113.387 116.005 113.72 116.816C114.053 117.627 114.974 118.012 115.777 117.676Z" fill="#ABBAEF"></path><path d="M254.157 116.207C254.157 115.33 254.862 114.618 255.731 114.618C256.6 114.618 257.305 115.33 257.305 116.207C257.305 117.085 256.6 117.796 255.731 117.796C254.862 117.796 254.157 117.085 254.157 116.207Z" fill="#ABBAEF"></path><path d="M255.732 116.035H115.174V116.38H255.732V116.035Z" fill="#ABBAEF"></path><path d="M115.344 115.575H115.002V257.464H115.344V115.575Z" fill="#ABBAEF"></path><path d="M255.958 115.575H255.615V257.464H255.958V115.575Z" fill="#ABBAEF"></path><path d="M277.999 147.197V259H93V147.197L185.499 203.1L277.999 147.197Z" fill="#FECF00"></path><path d="M93 259L177.734 197.677C182.376 194.317 188.622 194.317 193.264 197.677L277.999 259H93Z" fill="#F1AF05"></path><path d="M213.739 128.887H157.9C157.089 128.887 156.425 128.217 156.425 127.398C156.425 126.58 157.089 125.91 157.9 125.91H213.739C214.549 125.91 215.213 126.58 215.213 127.398C215.213 128.217 214.549 128.887 213.739 128.887Z" fill="#ABBAEF"></path><path d="M228.121 134.858H143.517C142.706 134.858 142.042 134.189 142.042 133.37C142.042 132.551 142.706 131.882 143.517 131.882H228.123C228.934 131.882 229.597 132.551 229.597 133.37C229.596 134.189 228.932 134.858 228.121 134.858Z" fill="#ABBAEF"></path><path d="M217.15 153.377H155.934C155.348 153.377 154.868 152.892 154.868 152.3C154.868 151.709 155.348 151.223 155.934 151.223H217.149C217.735 151.223 218.216 151.709 218.216 152.3C218.217 152.894 217.737 153.377 217.15 153.377Z" fill="#ABBAEF"></path><path d="M162.082 159.002H144.822C144.235 159.002 143.755 158.517 143.755 157.925C143.755 157.333 144.235 156.848 144.822 156.848H162.082C162.668 156.848 163.149 157.333 163.149 157.925C163.149 158.517 162.668 159.002 162.082 159.002Z" fill="#ABBAEF"></path><path d="M188.114 159.002H167.26C166.674 159.002 166.193 158.517 166.193 157.925C166.193 157.333 166.674 156.848 167.26 156.848H188.112C188.698 156.848 189.179 157.333 189.179 157.925C189.18 158.517 188.7 159.002 188.114 159.002Z" fill="#ABBAEF"></path><path d="M228.263 159.002H192.214C191.628 159.002 191.147 158.517 191.147 157.925C191.147 157.333 191.628 156.848 192.214 156.848H228.263C228.849 156.848 229.33 157.333 229.33 157.925C229.33 158.517 228.849 159.002 228.263 159.002Z" fill="#ABBAEF"></path><path d="M188.25 165.54H154.72C154.134 165.54 153.654 165.055 153.654 164.463C153.654 163.871 154.134 163.386 154.72 163.386H188.25C188.837 163.386 189.317 163.871 189.317 164.463C189.317 165.055 188.837 165.54 188.25 165.54Z" fill="#ABBAEF"></path><path d="M218.364 165.54H191.955C191.369 165.54 190.888 165.055 190.888 164.463C190.888 163.871 191.369 163.386 191.955 163.386H218.364C218.951 163.386 219.431 163.871 219.431 164.463C219.431 165.055 218.951 165.54 218.364 165.54Z" fill="#ABBAEF"></path></svg>